<svg viewBox="0,0,700,300" xmlns="http://www.w3.org/2000/svg" xmlns:xlink="http://www.w3.org/1999/xlink"><g font-family="sans-serif" font-size="10" transform="translate(11.111111111111112,150)"><g fill="none" stroke="#555" stroke-opacity="0.4" stroke-width="1.5"><path d="M0,0C16.666666666666668,0,16.666666666666668,0,33.333333333333336,0"/><path d="M33.333333333333336,0C50,0,50,0,66.66666666666667,0"/><path d="M66.66666666666667,0C83.33333333333334,0,83.33333333333334,-45,100,-45"/><path d="M66.66666666666667,0C83.33333333333334,0,83.33333333333334,0,100,0"/><path d="M66.66666666666667,0C83.33333333333334,0,83.33333333333334,45,100,45"/><path d="M100,-45C116.66666666666667,-45,116.66666666666667,-75,133.33333333333334,-75"/><path d="M100,-45C116.66666666666667,-45,116.66666666666667,-45,133.33333333333334,-45"/><path d="M100,-45C116.66666666666667,-45,116.66666666666667,-15,133.33333333333334,-15"/><path d="M100,45C116.66666666666667,45,116.66666666666667,45,133.33333333333334,45"/><path d="M133.33333333333334,-45C150,-45,150,-75,166.66666666666669,-75"/><path d="M133.33333333333334,-45C150,-45,150,-45,166.66666666666669,-45"/><path d="M133.33333333333334,-45C150,-45,150,-15,166.66666666666669,-15"/><path d="M133.33333333333334,45C150,45,150,45,166.66666666666669,45"/><path d="M166.66666666666669,-75C183.33333333333334,-75,183.33333333333334,-75,200,-75"/><path d="M166.66666666666669,-15C183.33333333333334,-15,183.33333333333334,-15,200,-15"/><path d="M200,-75C216.66666666666669,-75,216.66666666666669,-75,233.33333333333334,-75"/><path d="M200,-15C216.66666666666669,-15,216.66666666666669,-15,233.33333333333334,-15"/><path d="M233.33333333333334,-15C250,-15,250,-15,266.6666666666667,-15"/></g><g stroke-linejoin="round" stroke-width="3" style="font: 10px courier;"><g transform="translate(0,0)"><text dy="0.31em" x="0" text-anchor="middle" stroke="white">PROG</text><circle fill="rgba(244, 35, 35, 0.36)" r="6.5"/><text dy="0.31em" x="0" text-anchor="middle">PROG</text></g><g transform="translate(33.333333333333336,0)"><text dy="0.31em" x="0" text-anchor="middle" stroke="white">E</text><circle fill="rgba(244, 35, 35, 0.36)" r="6.5"/><text dy="0.31em" x="0" text-anchor="middle">E</text></g><g transform="translate(66.66666666666667,0)"><text dy="0.31em" x="0" text-anchor="middle" stroke="white">Term</text><circle fill="rgba(244, 35, 35, 0.36)" r="6.5"/><text dy="0.31em" x="0" text-anchor="middle">Term</text></g><g transform="translate(100,-45)"><text dy="0.31em" x="0" text-anchor="middle" stroke="white">Factor</text><circle fill="rgba(244, 35, 35, 0.36)" r="6.5"/><text dy="0.31em" x="0" text-anchor="middle">Factor</text></g><g transform="translate(100,0)"><text dy="0.31em" x="15" text-anchor="end" stroke="white">*</text><circle fill="rgba(70, 204, 60, 0.4)" r="6.5"/><text dy="0.31em" x="15" text-anchor="end">*</text></g><g transform="translate(100,45)"><text dy="0.31em" x="0" text-anchor="middle" stroke="white">Term</text><circle fill="rgba(244, 35, 35, 0.36)" r="6.5"/><text dy="0.31em" x="0" text-anchor="middle">Term</text></g><g transform="translate(133.33333333333334,-75)"><text dy="0.31em" x="15" text-anchor="end" stroke="white">(</text><circle fill="rgba(70, 204, 60, 0.4)" r="6.5"/><text dy="0.31em" x="15" text-anchor="end">(</text></g><g transform="translate(133.33333333333334,-45)"><text dy="0.31em" x="0" text-anchor="middle" stroke="white">E</text><circle fill="rgba(244, 35, 35, 0.36)" r="6.5"/><text dy="0.31em" x="0" text-anchor="middle">E</text></g><g transform="translate(133.33333333333334,-15)"><text dy="0.31em" x="15" text-anchor="end" stroke="white">)</text><circle fill="rgba(70, 204, 60, 0.4)" r="6.5"/><text dy="0.31em" x="15" text-anchor="end">)</text></g><g transform="translate(133.33333333333334,45)"><text dy="0.31em" x="0" text-anchor="middle" stroke="white">Factor</text><circle fill="rgba(244, 35, 35, 0.36)" r="6.5"/><text dy="0.31em" x="0" text-anchor="middle">Factor</text></g><g transform="translate(166.66666666666669,-75)"><text dy="0.31em" x="0" text-anchor="middle" stroke="white">Term</text><circle fill="rgba(244, 35, 35, 0.36)" r="6.5"/><text dy="0.31em" x="0" text-anchor="middle">Term</text></g><g transform="translate(166.66666666666669,-45)"><text dy="0.31em" x="15" text-anchor="end" stroke="white">+</text><circle fill="rgba(70, 204, 60, 0.4)" r="6.5"/><text dy="0.31em" x="15" text-anchor="end">+</text></g><g transform="translate(166.66666666666669,-15)"><text dy="0.31em" x="0" text-anchor="middle" stroke="white">E</text><circle fill="rgba(244, 35, 35, 0.36)" r="6.5"/><text dy="0.31em" x="0" text-anchor="middle">E</text></g><g transform="translate(166.66666666666669,45)"><text dy="0.31em" x="15" text-anchor="end" stroke="white">3</text><circle fill="rgba(70, 204, 60, 0.4)" r="6.5"/><text dy="0.31em" x="15" text-anchor="end">3</text></g><g transform="translate(200,-75)"><text dy="0.31em" x="0" text-anchor="middle" stroke="white">Factor</text><circle fill="rgba(244, 35, 35, 0.36)" r="6.5"/><text dy="0.31em" x="0" text-anchor="middle">Factor</text></g><g transform="translate(200,-15)"><text dy="0.31em" x="0" text-anchor="middle" stroke="white">Term</text><circle fill="rgba(244, 35, 35, 0.36)" r="6.5"/><text dy="0.31em" x="0" text-anchor="middle">Term</text></g><g transform="translate(233.33333333333334,-75)"><text dy="0.31em" x="15" text-anchor="end" stroke="white">1</text><circle fill="rgba(70, 204, 60, 0.4)" r="6.5"/><text dy="0.31em" x="15" text-anchor="end">1</text></g><g transform="translate(233.33333333333334,-15)"><text dy="0.31em" x="0" text-anchor="middle" stroke="white">Factor</text><circle fill="rgba(244, 35, 35, 0.36)" r="6.5"/><text dy="0.31em" x="0" text-anchor="middle">Factor</text></g><g transform="translate(266.6666666666667,-15)"><text dy="0.31em" x="15" text-anchor="end" stroke="white">2</text><circle fill="rgba(70, 204, 60, 0.4)" r="6.5"/><text dy="0.31em" x="15" text-anchor="end">2</text></g></g></g></svg>